<?xml version="1.0" encoding="utf-8"?>
<!-- Generator: Adobe Illustrator 19.0.0, SVG Export Plug-In . SVG Version: 6.00 Build 0)  -->
<svg version="1.1" id="Layer_1" xmlns="http://www.w3.org/2000/svg" xmlns:xlink="http://www.w3.org/1999/xlink" 
	 x="0px" y="0px" viewBox="0 0 142.3 73.1" 
	 style="enable-background:new 0 0 142.3 73.1;" xml:space="preserve">
<style type="text/css">
	.st0{fill:#ffffff;}
</style>
<g>
	<path class="st0" d="M142.3,73.1H0V0h142.3V73.1z M3.8,69.3h134.6V3.8H3.8V69.3z"/>
	<g>
		<path class="st0" d="M28.3,50.5h-7V22.1h10.3c7.1,0,10.7,4.4,10.7,9.8s-3.6,10-10.7,10h-3.3V50.5z M28.3,28.1v7.6h2
			c2.8,0,5-1,5-3.9c0-2.9-2.1-3.7-5-3.7H28.3z"/>
		<path class="st0" d="M42.3,41.1c0-5.8,4.5-9.9,10.2-9.9c5.7,0,10.2,4.1,10.2,9.9c0,5.8-4.5,10-10.2,10
			C46.9,51,42.3,46.8,42.3,41.1z M48.8,41.1c0,2.3,1.5,4.1,3.7,4.1c2.1,0,3.7-1.7,3.7-4.1c0-2.4-1.5-4-3.7-4
			C50.3,37,48.8,38.7,48.8,41.1z"/>
		<path class="st0" d="M76.9,37h-2.4c-2.8,0-3.5,2.4-3.5,4.8v8.7h-6.5V31.6h6.3v3c0.4-2.2,1.8-3.1,3-3.1c0.5,0,3.1,0.1,3.1,0.1V37z"
			/>
		<path class="st0" d="M88.1,24.9v6.8h3.8V37h-3.8v6.9c0,1.1,0.9,1.3,1.7,1.3c1.2,0,2.1-0.1,2.1-0.1v5.6c0,0-3.1,0.2-4.6,0.2
			c-3.1,0-5.7-0.9-5.7-4.8V37h-2.8v-5.3h2.8v-6.8H88.1z"/>
		<path class="st0" d="M93.3,41.1c0-5.8,4.5-9.9,10.2-9.9c5.7,0,10.2,4.1,10.2,9.9c0,5.8-4.5,10-10.2,10
			C97.8,51,93.3,46.8,93.3,41.1z M99.8,41.1c0,2.3,1.5,4.1,3.7,4.1c2.1,0,3.7-1.7,3.7-4.1c0-2.4-1.5-4-3.7-4
			C101.3,37,99.8,38.7,99.8,41.1z"/>
		<path class="st0" d="M118.7,42.9c2.3,0,4.1,1.8,4.1,4.1c0,2.2-1.8,4.1-4.1,4.1c-2.2,0-4.1-1.8-4.1-4.1
			C114.7,44.7,116.5,42.9,118.7,42.9z"/>
	</g>
</g>
</svg>
